<?xml version="1.0" encoding="utf-8"?>
<svg width="800" height="800" viewBox="0 0 800 800" fill="none" xmlns="http://www.w3.org/2000/svg">
  <g>
    <g transform="matrix(0 -1 1 0 65.703 603.672)">
      <path d="M388.437 37.5C388.437 37.5 18.75 37.5 18.75 37.5C8.43749 37.5 0 29.0625 0 18.75C0 8.4375 8.43749 0 18.75 0C18.75 0 388.594 0 388.594 0C398.906 0 407.344 8.4375 407.344 18.75C407.344 29.0625 398.906 37.5 388.437 37.5C388.437 37.5 388.437 37.5 388.437 37.5Z" fill="#6040EC" transform="translate(0 315.625)" />
      <g transform="matrix(1 0 0 1 104.218 0)">
        <path d="M194.063 155.469C187.188 147.656 175.313 146.875 167.657 153.75C167.657 153.75 118.126 197.187 118.126 197.187C118.126 197.187 118.126 18.75 118.126 18.75C118.126 8.4375 109.688 0 99.3758 0C89.0633 0 80.6258 8.4375 80.6258 18.75C80.6258 18.75 80.6258 197.187 80.6258 197.187C80.6258 197.187 31.0945 153.75 31.0945 153.75C23.282 146.875 11.407 147.656 4.68829 155.469C-2.1867 163.281 -1.40545 175.156 6.40705 181.875C6.40705 181.875 80.782 247.188 80.782 247.188C86.0945 251.875 92.657 254.219 99.3758 254.219C105.938 254.219 112.657 251.875 117.97 247.188C117.97 247.188 192.345 181.875 192.345 181.875C200.157 175 200.938 163.281 194.063 155.469C194.063 155.469 194.063 155.469 194.063 155.469Z" fill="#0BDC49" transform="scale(1 1)" />
        <path d="M192.345 72.2265C192.345 72.2265 117.97 6.91403 117.97 6.91403C107.345 -2.30469 91.407 -2.30469 80.782 6.91403C80.782 6.91403 6.40702 72.2265 6.40702 72.2265C-1.40548 79.1015 -2.18673 90.9765 4.68826 98.6328C11.5633 106.445 23.4383 107.227 31.0945 100.352C31.0945 100.352 80.6257 56.914 80.6257 56.914C80.6257 56.914 80.6257 235.352 80.6257 235.352C80.6257 245.664 89.0632 254.102 99.3757 254.102C109.688 254.102 118.126 245.664 118.126 235.352C118.126 235.352 118.126 56.914 118.126 56.914C118.126 56.914 167.657 100.351 167.657 100.351C171.251 103.476 175.626 105.039 180.001 105.039C185.157 105.039 190.47 102.851 194.063 98.6327C200.938 90.8203 200.157 79.1015 192.345 72.2265C192.345 72.2265 192.345 72.2265 192.345 72.2265Z" fill="#0BDC49" transform="matrix(1 0 0 1 0 414.649)" />
      </g>
    </g>
  </g>
</svg>