<svg xmlns="http://www.w3.org/2000/svg"  viewBox="0 0 32 32" width="32px" height="32px" baseProfile="basic"><linearGradient id="GsBWv_F7GSWZY12rukN0la" x1="5.929" x2="20.071" y1="5.929" y2="20.071" gradientUnits="userSpaceOnUse"><stop offset="0" stop-color="#2680ff" stop-opacity=".95"/><stop offset="1" stop-color="#2680ff" stop-opacity=".5"/></linearGradient><circle cx="13" cy="13" r="10" fill="url(#GsBWv_F7GSWZY12rukN0la)"/><linearGradient id="GsBWv_F7GSWZY12rukN0lb" x1="19.93" x2="27.41" y1="19.93" y2="27.41" gradientUnits="userSpaceOnUse"><stop offset="0" stop-color="#eb6600" stop-opacity=".95"/><stop offset="1" stop-color="#eb6600" stop-opacity=".5"/></linearGradient><path fill="url(#GsBWv_F7GSWZY12rukN0lb)" d="M27.41,27.41C27.02,27.8,26.51,28,26,28s-1.02-0.2-1.41-0.59l-6.07-6.07	c1.12-0.74,2.08-1.7,2.82-2.82l6.07,6.07C28.2,25.37,28.2,26.63,27.41,27.41z"/><linearGradient id="GsBWv_F7GSWZY12rukN0lc" x1="5.929" x2="27.41" y1="5.929" y2="27.41" gradientUnits="userSpaceOnUse"><stop offset="0" stop-color="#fff" stop-opacity=".6"/><stop offset=".493" stop-color="#fff" stop-opacity="0"/><stop offset=".997" stop-color="#fff" stop-opacity=".3"/></linearGradient><path fill="url(#GsBWv_F7GSWZY12rukN0lc)" d="M13,3.5c5.238,0,9.5,4.262,9.5,9.5c0,1.87-0.546,3.682-1.58,5.241l-0.226,0.341l0.289,0.289	l6.075,6.075c0.286,0.283,0.444,0.657,0.444,1.054c0,0.397-0.158,0.772-0.446,1.056C26.77,27.342,26.395,27.5,26,27.5	s-0.77-0.158-1.056-0.444l-6.073-6.073l-0.289-0.289l-0.341,0.226C16.682,21.954,14.87,22.5,13,22.5c-5.238,0-9.5-4.262-9.5-9.5	S7.762,3.5,13,3.5 M13,3C7.477,3,3,7.477,3,13c0,5.523,4.477,10,10,10c2.04,0,3.935-0.614,5.517-1.663l6.073,6.073	C24.98,27.8,25.49,28,26,28s1.02-0.2,1.41-0.59c0.79-0.78,0.79-2.04,0-2.82l-6.073-6.073C22.386,16.935,23,15.04,23,13	C23,7.477,18.523,3,13,3L13,3z"/><linearGradient id="GsBWv_F7GSWZY12rukN0ld" x1="11.763" x2="14.237" y1="11.763" y2="14.237" gradientUnits="userSpaceOnUse"><stop offset="0" stop-color="#fff" stop-opacity=".8"/><stop offset=".519" stop-color="#fff" stop-opacity=".5"/><stop offset="1" stop-color="#fff" stop-opacity=".6"/></linearGradient><circle cx="13" cy="13" r="1.75" fill="url(#GsBWv_F7GSWZY12rukN0ld)"/><linearGradient id="GsBWv_F7GSWZY12rukN0le" x1="6.763" x2="9.237" y1="11.763" y2="14.237" gradientUnits="userSpaceOnUse"><stop offset="0" stop-color="#fff" stop-opacity=".8"/><stop offset=".519" stop-color="#fff" stop-opacity=".5"/><stop offset="1" stop-color="#fff" stop-opacity=".6"/></linearGradient><circle cx="8" cy="13" r="1.75" fill="url(#GsBWv_F7GSWZY12rukN0le)"/><linearGradient id="GsBWv_F7GSWZY12rukN0lf" x1="16.763" x2="19.237" y1="11.763" y2="14.237" gradientUnits="userSpaceOnUse"><stop offset="0" stop-color="#fff" stop-opacity=".8"/><stop offset=".519" stop-color="#fff" stop-opacity=".5"/><stop offset="1" stop-color="#fff" stop-opacity=".6"/></linearGradient><circle cx="18" cy="13" r="1.75" fill="url(#GsBWv_F7GSWZY12rukN0lf)"/></svg>